<svg width="41" height="30" viewBox="0 0 41 30" fill="none" xmlns="http://www.w3.org/2000/svg">
<g id="Group">
<path id="Vector" fill-rule="evenodd" clip-rule="evenodd" d="M0.5 0H40.5V30H0.5V0Z" fill="#229E45"/>
<path id="Vector_2" fill-rule="evenodd" clip-rule="evenodd" d="M20.5875 27.25L39.4313 15.0188L20.475 2.75L1.56876 15.0438L20.5875 27.25Z" fill="#F8E509"/>
<path id="Vector_3" fill-rule="evenodd" clip-rule="evenodd" d="M28.8 15C28.8 19.3938 25.2313 22.9563 20.825 22.9563C19.2504 22.9538 17.712 22.4845 16.404 21.6078C15.0961 20.7311 14.0775 19.4863 13.4769 18.0308C12.8764 16.5752 12.7208 14.9743 13.03 13.4304C13.3391 11.8865 14.0991 10.4689 15.2138 9.35681C16.3285 8.24473 17.7479 7.48811 19.2925 7.1826C20.8372 6.87708 22.4377 7.03638 23.8918 7.64037C25.3459 8.24436 26.5884 9.26591 27.462 10.5759C28.3356 11.8859 28.8012 13.4254 28.8 15Z" fill="#2B49A3"/>
<path id="Vector_4" fill-rule="evenodd" clip-rule="evenodd" d="M18.2063 19.7688L17.9563 19.625L17.7063 19.75L17.7625 19.4688L17.5625 19.2563L17.8438 19.225L17.9813 18.975L18.1 19.2375L18.375 19.2875L18.1688 19.475M23.5438 21.1188L23.3 20.975L23.05 21.1L23.1 20.8188L22.9063 20.6125L23.1875 20.5813L23.3188 20.325L23.4438 20.5875L23.7188 20.6375L23.5063 20.8313M21.2438 18.9563L21.0313 18.8313L20.8125 18.9438L20.8625 18.7L20.6875 18.5188L20.9375 18.4938L21.05 18.2688L21.15 18.5L21.3938 18.5438L21.2063 18.7125M26.6438 18.1813L26.4313 18.0563L26.2125 18.1688L26.2625 17.925L26.0938 17.75L26.3375 17.725L26.45 17.5063L26.55 17.7313L26.7875 17.775L26.6063 17.9375M21.15 16.5625L20.9 16.425L20.65 16.55L20.7 16.2625L20.5063 16.0563L20.7875 16.025L20.9188 15.7688L21.0438 16.0313L21.3188 16.0813L21.1063 16.2813M14.5688 14.0938L14.3188 13.9563L14.0688 14.0813L14.1313 13.7938L13.925 13.5875L14.2125 13.5563L14.3375 13.3L14.4625 13.5625L14.7375 13.6125L14.5313 13.8063M15.3625 17.3813L15.1125 17.2375L14.8625 17.3625L14.9188 17.0813L14.7188 16.875L15 16.8375L15.1313 16.5875L15.2563 16.85L15.5313 16.9L15.325 17.0938M23.575 12.8875L23.35 12.7625L23.125 12.875L23.175 12.625L23 12.4375L23.25 12.4063L23.3688 12.1813L23.475 12.4188L23.725 12.4625L23.5375 12.6313M23.1188 15.025L22.95 14.925L22.7688 15.0125L22.8063 14.8125L22.6688 14.6688L22.8688 14.6438L22.9625 14.4688L23.0438 14.6563L23.2313 14.6875L23.0938 14.825M14.2063 17.975L14.0375 17.8813L13.8688 17.9625L13.9063 17.775L13.775 17.6375L13.9625 17.6125L14.05 17.4438L14.1313 17.6188L14.3188 17.6563L14.175 17.7813M26.6875 18.7375L26.55 18.6688L26.4125 18.7313L26.4438 18.5875L26.3375 18.4875L26.4875 18.4688L26.5625 18.3438L26.625 18.4688L26.7813 18.5L26.6625 18.5938" fill="#FFFFEF"/>
<path id="Vector_5" fill-rule="evenodd" clip-rule="evenodd" d="M14.2063 17.975L14.0375 17.8813L13.8688 17.9625L13.9063 17.775L13.775 17.6375L13.9625 17.6125L14.05 17.4438L14.1313 17.6188L14.3188 17.6563L14.175 17.7813" fill="#FFFFEF"/>
<path id="Vector_6" fill-rule="evenodd" clip-rule="evenodd" d="M14.2063 17.975L14.0375 17.8813L13.8688 17.9625L13.9063 17.775L13.775 17.6375L13.9625 17.6125L14.05 17.4438L14.1313 17.6188L14.3188 17.6563L14.175 17.7813M16.8188 17.9688L16.6563 17.8813L16.4875 17.9625L16.525 17.775L16.3938 17.6375L16.5813 17.6125L16.6688 17.4438L16.75 17.6188L16.9375 17.65L16.7938 17.7813M16.4938 18.8438L16.3313 18.75L16.1625 18.8375L16.2 18.65L16.0688 18.5063L16.2563 18.4813L16.3438 18.3125L16.425 18.4875L16.6125 18.525L16.4688 18.65M21.9313 17.2625L21.7688 17.1625L21.5938 17.25L21.6313 17.0625L21.5063 16.9188L21.6938 16.9L21.7813 16.7313L21.8563 16.9063L22.0438 16.9375L21.9063 17.0688M20.3375 17.2563L20.1688 17.1625L20 17.25L20.0375 17.0625L19.9125 16.9188L20.1 16.9L20.1875 16.725L20.2625 16.9063L20.45 16.9375L20.3125 17.0688M16.0125 16.7063L15.9063 16.6438L15.8 16.6938L15.825 16.575L15.7438 16.4875L15.8625 16.475L15.9125 16.3688L15.9625 16.4813L16.0813 16.5L15.9938 16.5813M26.4813 19.4188L26.3188 19.325L26.15 19.4125L26.1875 19.225L26.0563 19.0813L26.2438 19.0563L26.3313 18.8875L26.4125 19.0625L26.6 19.1L26.4563 19.225M25.1563 19.6L25.0188 19.5125L24.875 19.5875L24.9063 19.425L24.8 19.3125L24.9563 19.2938L25.0313 19.15L25.0938 19.3L25.25 19.325L25.1313 19.4375M25.7813 19.5813L25.6563 19.5063L25.525 19.5688L25.55 19.425L25.45 19.3188L25.5938 19.3L25.6625 19.175L25.725 19.3L25.8688 19.3313L25.7625 19.4313M27.5813 18.0063L27.4563 17.9438L27.3313 18.0063L27.3625 17.8625L27.2625 17.7563L27.4063 17.7375L27.4688 17.6125L27.5313 17.7438L27.6625 17.7688L27.5625 17.8688M25.1375 20.4813L24.9813 20.3938L24.8125 20.4688L24.85 20.2938L24.725 20.1688L24.9125 20.15L24.9938 19.9938L25.0688 20.1563L25.2563 20.1875L25.1125 20.3063M25.15 21.1938L25 21.1063L24.85 21.1875L24.8875 21.0125L24.7688 20.8875L24.9375 20.8625L25.0125 20.7063L25.0813 20.8688L25.25 20.9L25.125 21.025M23.9375 19.5813L23.8188 19.5063L23.6938 19.5688L23.7188 19.4313L23.625 19.325L23.7625 19.3125L23.825 19.1875L23.8875 19.3125L24.025 19.3375L23.925 19.4375M22.8125 19.5813L22.6875 19.5063L22.5625 19.5688L22.5938 19.4313L22.4938 19.325L22.6375 19.3125L22.7 19.1875L22.7625 19.3125L22.8938 19.3375L22.7938 19.4375M20.8938 17.9L20.7688 17.8313L20.6438 17.8938L20.675 17.75L20.575 17.65L20.7125 17.6313L20.775 17.5063L20.8375 17.6313L20.975 17.6625L20.875 17.7563M21.1063 21.3188L21.0063 21.2625L20.8938 21.3188L20.9188 21.1938L20.8375 21.1063L20.9563 21.0938L21.0125 20.9875L21.0625 21.1L21.1813 21.1188L21.0938 21.2M18.2063 15.7875L17.9563 15.6438L17.7063 15.7688L17.7625 15.4875L17.5625 15.2813L17.8438 15.2438L17.9813 14.9938L18.1 15.2563L18.375 15.3063L18.1688 15.5" fill="#FFFFEF"/>
<path id="Vector_7" fill-rule="evenodd" clip-rule="evenodd" d="M28.275 17.8625C28.4298 17.4607 28.5511 17.0468 28.6375 16.625C24.4 12.9062 19.6813 11 13.7188 11.3937C13.5025 11.8122 13.3247 12.2494 13.1875 12.7C20.25 12.025 25.4375 15.15 28.275 17.8625Z" fill="white"/>
<path id="Vector_8" d="M26.375 15.775L26.5187 15.8562C26.4973 15.8987 26.4907 15.9471 26.5 15.9937C26.5146 16.039 26.5459 16.077 26.5875 16.1C26.6312 16.1313 26.675 16.15 26.7125 16.1437C26.75 16.1437 26.775 16.125 26.7937 16.1C26.8046 16.0834 26.8091 16.0634 26.8062 16.0438C26.8011 16.0207 26.7904 15.9992 26.775 15.9812C26.7625 15.9625 26.7312 15.9187 26.6812 15.8687C26.6299 15.8157 26.5914 15.7516 26.5687 15.6812C26.5532 15.628 26.5572 15.571 26.5801 15.5205C26.6031 15.47 26.6434 15.4295 26.6937 15.4062C26.7392 15.3873 26.7894 15.3829 26.8375 15.3938C26.8963 15.4073 26.9516 15.4328 27 15.4688C27.0875 15.5312 27.1437 15.5937 27.1625 15.6687C27.1711 15.7038 27.1723 15.7403 27.1658 15.7759C27.1593 15.8114 27.1454 15.8452 27.125 15.875L26.975 15.7812C26.9937 15.7438 27 15.7063 26.9875 15.675C26.9812 15.6438 26.9562 15.6125 26.9125 15.5875C26.8804 15.5617 26.8411 15.5464 26.8 15.5437C26.7887 15.5434 26.7774 15.5461 26.7675 15.5516C26.7576 15.5571 26.7494 15.5652 26.7437 15.575C26.7312 15.5937 26.7312 15.6125 26.7375 15.6375C26.7437 15.6625 26.775 15.7125 26.8375 15.775C26.9 15.8375 26.9375 15.8937 26.9625 15.9312C26.9848 15.9722 26.9949 16.0187 26.9916 16.0652C26.9883 16.1118 26.9717 16.1564 26.9437 16.1938C26.9145 16.2362 26.8731 16.2689 26.825 16.2875C26.7781 16.3091 26.7257 16.3156 26.675 16.3062C26.6187 16.2937 26.5625 16.2688 26.5 16.225C26.4062 16.1625 26.35 16.0937 26.3312 16.0187C26.3109 15.9337 26.3243 15.8441 26.3687 15.7688L26.375 15.775ZM25.65 15.3L25.8062 15.3813C25.7869 15.4244 25.7825 15.4728 25.7937 15.5188C25.8097 15.5616 25.8409 15.5972 25.8812 15.6187C25.9312 15.65 25.9687 15.6625 26.0062 15.6562C26.0437 15.6562 26.0687 15.6375 26.0875 15.6062C26.097 15.5914 26.1014 15.5738 26.1 15.5562C26.1 15.5375 26.0875 15.5125 26.0687 15.4937C26.0367 15.4551 26.0034 15.4176 25.9687 15.3813C25.9 15.3125 25.8562 15.2563 25.8437 15.2063C25.8335 15.1741 25.8305 15.1401 25.8348 15.1066C25.8391 15.0731 25.8507 15.041 25.8687 15.0125C25.8925 14.9739 25.9274 14.9434 25.9687 14.925C26.0117 14.9052 26.0596 14.8987 26.1062 14.9062C26.1641 14.916 26.2193 14.9372 26.2687 14.9688C26.3625 15.0312 26.4187 15.0938 26.4375 15.1625C26.4489 15.1976 26.4526 15.2348 26.4482 15.2715C26.4439 15.3082 26.4317 15.3435 26.4125 15.375L26.2562 15.2875C26.275 15.2438 26.2812 15.2125 26.2687 15.1812C26.2562 15.15 26.2312 15.1188 26.1875 15.0938C26.1529 15.0689 26.1113 15.0558 26.0687 15.0562C26.0585 15.0569 26.0486 15.0602 26.0398 15.0656C26.0311 15.0711 26.0239 15.0786 26.0187 15.0875C26.0062 15.1062 26.0062 15.125 26.0125 15.15C26.0187 15.175 26.0562 15.225 26.1187 15.2875C26.1812 15.35 26.225 15.4 26.2437 15.4375C26.2688 15.4767 26.2821 15.5222 26.2821 15.5688C26.2821 15.6153 26.2688 15.6608 26.2437 15.7C26.2168 15.7436 26.1777 15.7784 26.1312 15.8C26.0844 15.8216 26.032 15.8281 25.9812 15.8188C25.9169 15.8079 25.8553 15.7845 25.8 15.75C25.7192 15.7069 25.657 15.6358 25.625 15.55C25.6008 15.4666 25.6098 15.377 25.65 15.3ZM24.7625 15.0625L25.2187 14.3125L25.7687 14.6562L25.6937 14.7812L25.2937 14.5312L25.1937 14.7L25.5687 14.9312L25.4875 15.0562L25.1125 14.825L24.9875 15.0312L25.4062 15.2812L25.3312 15.4062L24.7687 15.0625H24.7625ZM23.4687 14L23.5375 13.875L23.875 14.0437L23.7187 14.3562C23.6687 14.3687 23.6062 14.375 23.5312 14.3687C23.4592 14.3608 23.3893 14.3396 23.325 14.3062C23.2494 14.2694 23.1847 14.2134 23.1375 14.1438C23.0945 14.0791 23.0727 14.0026 23.075 13.925C23.0782 13.8442 23.0995 13.7652 23.1375 13.6938C23.175 13.6186 23.2309 13.5541 23.3 13.5063C23.3661 13.4606 23.4447 13.4365 23.525 13.4375C23.5875 13.4375 23.65 13.4562 23.725 13.5C23.825 13.5438 23.8875 13.6063 23.9187 13.675C23.9512 13.7432 23.9579 13.821 23.9375 13.8938L23.7687 13.8438C23.7791 13.8019 23.7747 13.7577 23.7562 13.7188C23.7375 13.6813 23.7062 13.6563 23.6562 13.6313C23.6271 13.6146 23.5948 13.6043 23.5614 13.6011C23.528 13.5979 23.4943 13.6018 23.4625 13.6125C23.4 13.6313 23.3437 13.6875 23.3 13.775C23.2562 13.8625 23.2375 13.9437 23.2562 14.0125C23.2649 14.0451 23.2805 14.0754 23.3021 14.1013C23.3237 14.1273 23.3507 14.1481 23.3812 14.1625C23.4125 14.1813 23.45 14.1938 23.4875 14.1938C23.5248 14.1994 23.5627 14.1994 23.6 14.1938L23.65 14.0938L23.4687 14ZM17.8312 12.6062L17.9562 11.7312L18.2187 11.775L18.2875 12.3875L18.5312 11.825L18.7937 11.8625L18.6687 12.725L18.5 12.7L18.6062 12.0188L18.3312 12.675L18.1625 12.65L18.0937 11.9438L17.9937 12.6313L17.8312 12.6062ZM16.95 12.5L17.0312 11.625L17.675 11.6875L17.6625 11.8375L17.1937 11.7937L17.175 11.9812L17.6125 12.025L17.5937 12.175L17.1562 12.1313L17.1375 12.3687L17.625 12.4125L17.6125 12.5625L16.95 12.5Z" fill="#309E3A"/>
<g id="Group_2">
<path id="Vector_9" d="M14.0312 11.9562C14.0312 11.8625 14.05 11.7937 14.075 11.7312C14.0969 11.6868 14.1265 11.6466 14.1625 11.6125C14.1946 11.5802 14.2328 11.5546 14.275 11.5375C14.3375 11.5187 14.4 11.5062 14.4625 11.5062C14.5937 11.5062 14.6937 11.5562 14.775 11.6312C14.8137 11.679 14.8424 11.734 14.8596 11.793C14.8768 11.8521 14.882 11.9139 14.875 11.975C14.875 12.1125 14.8312 12.225 14.75 12.3062C14.7082 12.3448 14.6589 12.3742 14.605 12.3925C14.5512 12.4108 14.4941 12.4176 14.4375 12.4125C14.3816 12.4131 14.3262 12.4023 14.2747 12.3808C14.2231 12.3593 14.1764 12.3276 14.1375 12.2875C14.0597 12.1954 14.0215 12.0764 14.0312 11.9562Z" fill="#309E3A"/>
<path id="Vector_10" d="M14.2125 11.9562C14.2125 12.05 14.2313 12.125 14.275 12.1812C14.3188 12.2312 14.375 12.2625 14.45 12.2625C14.4824 12.2648 14.515 12.2598 14.5453 12.2479C14.5755 12.236 14.6028 12.2175 14.625 12.1937C14.6688 12.1437 14.6875 12.0687 14.6938 11.9625C14.6938 11.8625 14.6813 11.7875 14.6313 11.7375C14.6109 11.7123 14.5852 11.6919 14.556 11.6779C14.5268 11.6638 14.4949 11.6564 14.4625 11.6562C14.4296 11.6552 14.3969 11.6614 14.3667 11.6743C14.3364 11.6873 14.3094 11.7067 14.2875 11.7312C14.2375 11.7812 14.2188 11.8562 14.2125 11.9562Z" fill="#F7FFFF"/>
</g>
<g id="Group_3">
<path id="Vector_11" d="M15.0625 12.4062L15.075 11.5312H15.45C15.5437 11.5312 15.6062 11.5437 15.65 11.5625C15.6937 11.575 15.725 11.6063 15.75 11.6438C15.775 11.6813 15.7875 11.7313 15.7875 11.7875C15.788 11.8476 15.7657 11.9057 15.725 11.95C15.6788 11.9933 15.6193 12.0197 15.5562 12.025L15.65 12.1C15.675 12.125 15.7062 12.175 15.7437 12.2437L15.85 12.4187H15.6375L15.5125 12.2188L15.425 12.0938C15.4098 12.0766 15.3905 12.0636 15.3687 12.0562C15.3403 12.048 15.3109 12.0437 15.2812 12.0437H15.2437V12.4062H15.0625Z" fill="#309E3A"/>
<path id="Vector_12" d="M15.25 11.9062H15.375C15.4625 11.9062 15.5188 11.9062 15.5375 11.8937C15.5563 11.8937 15.575 11.875 15.5875 11.8625C15.6 11.85 15.6062 11.8187 15.6062 11.8C15.6062 11.7625 15.6 11.7375 15.5813 11.725C15.5688 11.7062 15.5438 11.6937 15.5188 11.6875H15.3938L15.25 11.6812V11.9V11.9062Z" fill="white"/>
</g>
<g id="Group_4">
<path id="Vector_13" d="M16.0625 11.575L16.3875 11.5937C16.4563 11.5937 16.5125 11.6 16.55 11.6125C16.5986 11.6301 16.6418 11.6603 16.675 11.7C16.711 11.7437 16.7366 11.795 16.75 11.85C16.7688 11.9062 16.775 11.975 16.7688 12.0562C16.7687 12.12 16.7581 12.1834 16.7375 12.2437C16.7125 12.3062 16.675 12.3562 16.6313 12.3937C16.5948 12.4237 16.5521 12.4451 16.5063 12.4562C16.4688 12.4687 16.4125 12.4687 16.35 12.4687L16.0188 12.45L16.0625 11.575Z" fill="#309E3A"/>
<path id="Vector_14" d="M16.2312 11.7312L16.2 12.3125H16.4375C16.4687 12.3125 16.4937 12.3 16.5125 12.2812C16.5312 12.2625 16.55 12.2375 16.5625 12.2C16.575 12.1625 16.5875 12.1062 16.5875 12.0375L16.5812 11.8812C16.5723 11.8483 16.5551 11.8182 16.5312 11.7937C16.5105 11.7729 16.4846 11.7578 16.4562 11.75C16.409 11.7395 16.3609 11.7332 16.3125 11.7312H16.2312Z" fill="white"/>
</g>
<g id="Group_5">
<path id="Vector_15" d="M20.35 13.1375L20.5562 12.2875L20.8312 12.35L21.0312 12.4125C21.075 12.4375 21.1125 12.475 21.1312 12.5313C21.1562 12.5813 21.1562 12.6375 21.1437 12.7063C21.1312 12.7563 21.1125 12.8 21.0812 12.8313C21.0583 12.8587 21.0296 12.8808 20.9972 12.8959C20.9648 12.911 20.9295 12.9188 20.8937 12.9188C20.85 12.9188 20.7875 12.9063 20.7062 12.8875L20.6 12.8563L20.525 13.1813L20.35 13.1375Z" fill="#309E3A"/>
<path id="Vector_16" d="M20.6875 12.475L20.6375 12.7125L20.7312 12.7375C20.7937 12.75 20.8437 12.7625 20.8687 12.7563C20.8931 12.7529 20.9157 12.7421 20.9336 12.7253C20.9515 12.7085 20.9638 12.6866 20.9687 12.6625C20.9687 12.6313 20.9687 12.6063 20.9562 12.5813C20.9425 12.5559 20.9204 12.536 20.8937 12.525L20.775 12.4938L20.6937 12.475H20.6875Z" fill="white"/>
</g>
<g id="Group_6">
<path id="Vector_17" d="M21.1625 13.3812L21.4562 12.5562L21.8 12.6812C21.8937 12.7125 21.95 12.7437 21.9875 12.7687C22.0187 12.8 22.0437 12.8312 22.05 12.8812C22.0562 12.9312 22.0625 12.975 22.05 13.025C22.025 13.0875 21.9875 13.1312 21.9375 13.1625C21.8875 13.1875 21.825 13.1937 21.75 13.1812C21.775 13.2125 21.8 13.2437 21.8125 13.2812L21.8625 13.45L21.9 13.6437L21.7062 13.575L21.6437 13.35C21.6324 13.2991 21.6178 13.249 21.6 13.2C21.5917 13.1806 21.5788 13.1634 21.5625 13.15C21.55 13.1312 21.525 13.1187 21.4812 13.1062L21.45 13.0937L21.325 13.4437L21.1625 13.3812Z" fill="#309E3A"/>
<path id="Vector_18" d="M21.5 12.9625L21.6187 13.0063C21.7 13.0375 21.75 13.05 21.775 13.05C21.7937 13.05 21.8125 13.05 21.8312 13.0313C21.85 13.0188 21.8625 13 21.8687 12.975C21.8812 12.95 21.8812 12.925 21.8687 12.9C21.8595 12.8758 21.8417 12.8558 21.8187 12.8438L21.6937 12.8L21.5687 12.7563L21.4937 12.9625H21.5Z" fill="white"/>
</g>
<g id="Group_7">
<path id="Vector_19" d="M22.1875 13.35C22.209 13.2768 22.2451 13.2088 22.2937 13.15C22.3254 13.1123 22.3635 13.0805 22.4062 13.0562C22.445 13.0344 22.4873 13.0195 22.5312 13.0125C22.5937 13.0125 22.6562 13.0125 22.725 13.0375C22.7809 13.0513 22.8332 13.0769 22.8784 13.1124C22.9237 13.148 22.9608 13.1927 22.9875 13.2437C23.0375 13.3437 23.0375 13.4625 23 13.6C22.9691 13.7181 22.8927 13.8192 22.7875 13.8812C22.6937 13.9375 22.5812 13.9437 22.4625 13.9062C22.4068 13.8921 22.3547 13.8664 22.3095 13.8309C22.2642 13.7953 22.227 13.7508 22.2 13.7C22.175 13.6454 22.161 13.5863 22.1588 13.5262C22.1567 13.4662 22.1664 13.4063 22.1875 13.35Z" fill="#309E3A"/>
<path id="Vector_20" d="M22.3625 13.4C22.3375 13.4937 22.3312 13.575 22.3625 13.6375C22.3937 13.7 22.4375 13.7375 22.5062 13.7625C22.5687 13.7812 22.6312 13.775 22.6937 13.7375C22.7562 13.7062 22.7937 13.6375 22.825 13.5375C22.8562 13.4437 22.8562 13.3687 22.825 13.3062C22.8127 13.2766 22.7939 13.25 22.7702 13.2284C22.7464 13.2068 22.7182 13.1907 22.6875 13.1812C22.6567 13.1706 22.6241 13.1668 22.5917 13.17C22.5593 13.1733 22.528 13.1835 22.5 13.2C22.4375 13.2375 22.3937 13.3 22.3625 13.4Z" fill="white"/>
</g>
<g id="Group_8">
<path id="Vector_21" d="M23.8938 14.5687L24.2938 13.7937L24.625 13.9625C24.6874 13.9925 24.7445 14.0326 24.7938 14.0812C24.825 14.1125 24.8438 14.15 24.8438 14.2C24.8438 14.25 24.8438 14.2937 24.8188 14.3375C24.7947 14.3937 24.75 14.4385 24.6938 14.4625C24.6313 14.475 24.5688 14.475 24.5 14.45C24.525 14.4875 24.5375 14.525 24.55 14.5562C24.5625 14.5937 24.5688 14.65 24.575 14.7312L24.5875 14.9312L24.4 14.8375L24.375 14.6062C24.372 14.5538 24.3658 14.5016 24.3563 14.45C24.352 14.4266 24.3412 14.4049 24.325 14.3875L24.25 14.3437L24.2188 14.325L24.05 14.65L23.8938 14.5687Z" fill="#309E3A"/>
<path id="Vector_22" d="M24.2812 14.2L24.4 14.2625C24.475 14.3 24.525 14.325 24.5438 14.325C24.5625 14.325 24.5875 14.325 24.6063 14.3125C24.625 14.3063 24.6375 14.2875 24.65 14.2625C24.6625 14.2375 24.6688 14.2125 24.6625 14.1875C24.6548 14.1626 24.6395 14.1408 24.6187 14.125C24.5822 14.1025 24.5446 14.0817 24.5063 14.0625L24.3813 14L24.2812 14.2Z" fill="white"/>
</g>
<g id="Group_9">
<path id="Vector_23" d="M27.1313 16.1688C27.1717 16.1045 27.2249 16.0492 27.2875 16.0062C27.3296 15.9793 27.3761 15.9603 27.425 15.95C27.4704 15.9407 27.5171 15.9407 27.5625 15.95C27.625 15.9625 27.6813 15.9875 27.7375 16.025C27.7861 16.0553 27.8279 16.0954 27.8602 16.1427C27.8925 16.1901 27.9146 16.2437 27.925 16.3C27.9438 16.4062 27.9125 16.525 27.8375 16.6437C27.7748 16.747 27.6736 16.8212 27.5563 16.85C27.5003 16.8621 27.4424 16.8622 27.3864 16.8504C27.3304 16.8385 27.2775 16.815 27.2313 16.7812C27.1826 16.7509 27.1408 16.7108 27.1085 16.6635C27.0763 16.6162 27.0542 16.5626 27.0438 16.5062C27.025 16.3937 27.0563 16.2813 27.1313 16.1688Z" fill="#309E3A"/>
<path id="Vector_24" d="M27.2875 16.2687C27.225 16.35 27.2063 16.425 27.2188 16.4937C27.2234 16.5254 27.2347 16.5557 27.2519 16.5827C27.2691 16.6096 27.2919 16.6326 27.3188 16.65C27.3813 16.6937 27.4438 16.7062 27.5063 16.6875C27.5688 16.6687 27.6313 16.625 27.6875 16.5375C27.7438 16.45 27.7688 16.375 27.7563 16.3125C27.75 16.25 27.7125 16.1937 27.6563 16.15C27.6 16.1062 27.5313 16.1 27.4688 16.1187C27.4063 16.1312 27.3438 16.1812 27.2813 16.2687H27.2875Z" fill="white"/>
</g>
<path id="Vector_25" d="M19.3625 12.7812L19.5063 12.1687L19.9563 12.275L19.9375 12.375L19.6063 12.3L19.575 12.4375L19.8813 12.5062L19.8563 12.6125L19.55 12.5375L19.5125 12.7062L19.8563 12.7875L19.8313 12.8875L19.3625 12.7812Z" fill="#309E3A"/>
</g>
</svg>
