<svg width="41" height="40" viewBox="0 0 41 40" fill="none" xmlns="http://www.w3.org/2000/svg">
<g id="github">
<path id="Vector" d="M20.5 3.33333C18.3113 3.33333 16.144 3.76442 14.1219 4.602C12.0998 5.43958 10.2625 6.66724 8.71488 8.21488C5.58928 11.3405 3.83333 15.5797 3.83333 20C3.83333 27.3667 8.61666 33.6167 15.2333 35.8333C16.0667 35.9667 16.3333 35.45 16.3333 35C16.3333 34.6167 16.3333 33.5667 16.3333 32.1833C11.7167 33.1833 10.7333 29.95 10.7333 29.95C9.96666 28.0167 8.88333 27.5 8.88333 27.5C7.36666 26.4667 8.99999 26.5 8.99999 26.5C10.6667 26.6167 11.55 28.2167 11.55 28.2167C13 30.75 15.45 30 16.4 29.6C16.55 28.5167 16.9833 27.7833 17.45 27.3667C13.75 26.95 9.86666 25.5167 9.86666 19.1667C9.86666 17.3167 10.5 15.8333 11.5833 14.65C11.4167 14.2333 10.8333 12.5 11.75 10.25C11.75 10.25 13.15 9.8 16.3333 11.95C17.65 11.5833 19.0833 11.4 20.5 11.4C21.9167 11.4 23.35 11.5833 24.6667 11.95C27.85 9.8 29.25 10.25 29.25 10.25C30.1667 12.5 29.5833 14.2333 29.4167 14.65C30.5 15.8333 31.1333 17.3167 31.1333 19.1667C31.1333 25.5333 27.2333 26.9333 23.5167 27.35C24.1167 27.8667 24.6667 28.8833 24.6667 30.4333C24.6667 32.6667 24.6667 34.4667 24.6667 35C24.6667 35.45 24.9333 35.9833 25.7833 35.8333C32.4 33.6 37.1667 27.3667 37.1667 20C37.1667 17.8113 36.7356 15.644 35.898 13.6219C35.0604 11.5998 33.8328 9.76253 32.2851 8.21488C30.7375 6.66724 28.9001 5.43958 26.8781 4.602C24.856 3.76442 22.6887 3.33333 20.5 3.33333Z" fill="black"/>
</g>
</svg>
