<svg width="124" height="59" viewBox="0 0 124 59" fill="none" xmlns="http://www.w3.org/2000/svg">
<g filter="url(#filter0_b_336_1679)">
<path d="M17.504 17.248C17.6727 17.248 17.7937 17.2847 17.867 17.358C17.9477 17.4313 17.988 17.5267 17.988 17.644C17.988 17.8347 17.9293 18.0033 17.812 18.15C17.702 18.2967 17.526 18.3737 17.284 18.381C16.6973 18.3957 16.1767 18.3517 15.722 18.249C15.2013 19.3417 14.5707 20.251 13.83 20.977C13.0967 21.6957 12.3597 22.055 11.619 22.055C10.8563 22.055 10.288 21.6113 9.914 20.724C9.54 19.8367 9.353 18.6377 9.353 17.127C9.353 15.8363 9.44467 14.6777 9.628 13.651C9.694 13.2697 9.78567 13.013 9.903 12.881C10.0277 12.7417 10.2367 12.672 10.53 12.672C11.014 12.672 11.256 12.881 11.256 13.299C11.256 13.343 11.2487 13.4237 11.234 13.541C11.014 14.861 10.904 16.0563 10.904 17.127C10.904 18.249 10.9957 19.1033 11.179 19.69C11.3697 20.2693 11.652 20.559 12.026 20.559C12.4073 20.559 12.8217 20.295 13.269 19.767C13.7163 19.239 14.127 18.5753 14.501 17.776C14.0537 17.4973 13.7163 17.138 13.489 16.698C13.2617 16.2507 13.148 15.7373 13.148 15.158C13.148 14.5787 13.236 14.091 13.412 13.695C13.5953 13.2917 13.841 12.991 14.149 12.793C14.4643 12.595 14.8127 12.496 15.194 12.496C15.6633 12.496 16.0337 12.6647 16.305 13.002C16.5837 13.3393 16.723 13.8013 16.723 14.388C16.723 15.2313 16.5397 16.1517 16.173 17.149C16.5617 17.215 17.0053 17.248 17.504 17.248ZM14.259 15.081C14.259 15.7997 14.49 16.3313 14.952 16.676C15.238 15.8547 15.381 15.1763 15.381 14.641C15.381 14.333 15.3407 14.1093 15.26 13.97C15.1793 13.8233 15.0693 13.75 14.93 13.75C14.732 13.75 14.5707 13.8673 14.446 14.102C14.3213 14.3293 14.259 14.6557 14.259 15.081ZM18.3586 16.148C18.0506 16.148 17.8196 16.0783 17.6656 15.939C17.5116 15.7923 17.4346 15.5907 17.4346 15.334C17.4346 15.0773 17.5336 14.8647 17.7316 14.696C17.937 14.52 18.19 14.432 18.4906 14.432C18.762 14.432 18.982 14.498 19.1506 14.63C19.3193 14.762 19.4036 14.949 19.4036 15.191C19.4036 15.4843 19.3083 15.719 19.1176 15.895C18.927 16.0637 18.674 16.148 18.3586 16.148ZM18.2706 22.055C17.794 22.055 17.4456 21.8863 17.2256 21.549C17.013 21.2117 16.9066 20.7643 16.9066 20.207C16.9066 19.877 16.947 19.4553 17.0276 18.942C17.1156 18.4213 17.2256 17.9373 17.3576 17.49C17.4236 17.2553 17.5116 17.094 17.6216 17.006C17.7316 16.918 17.9076 16.874 18.1496 16.874C18.5236 16.874 18.7106 16.9987 18.7106 17.248C18.7106 17.4313 18.641 17.8567 18.5016 18.524C18.3256 19.3307 18.2376 19.877 18.2376 20.163C18.2376 20.383 18.267 20.5517 18.3256 20.669C18.3843 20.7863 18.4833 20.845 18.6226 20.845C18.7546 20.845 18.9196 20.7533 19.1176 20.57C19.3156 20.3867 19.5796 20.097 19.9096 19.701C19.9976 19.5983 20.0966 19.547 20.2066 19.547C20.302 19.547 20.3753 19.591 20.4266 19.679C20.4853 19.767 20.5146 19.888 20.5146 20.042C20.5146 20.3353 20.445 20.5627 20.3056 20.724C19.5796 21.6113 18.9013 22.055 18.2706 22.055ZM20.4057 22.055C20.127 22.055 19.929 21.9083 19.8117 21.615C19.7017 21.3217 19.6467 20.8523 19.6467 20.207C19.6467 19.2537 19.7823 18.348 20.0537 17.49C20.1197 17.2773 20.226 17.1233 20.3727 17.028C20.5267 16.9253 20.7393 16.874 21.0107 16.874C21.1573 16.874 21.26 16.8923 21.3187 16.929C21.3773 16.9657 21.4067 17.0353 21.4067 17.138C21.4067 17.2553 21.3517 17.5193 21.2417 17.93C21.1683 18.2233 21.1097 18.48 21.0657 18.7C21.0217 18.92 20.985 19.1913 20.9557 19.514C21.1977 18.8833 21.469 18.37 21.7697 17.974C22.0703 17.578 22.3637 17.2957 22.6497 17.127C22.943 16.9583 23.2107 16.874 23.4527 16.874C23.9293 16.874 24.1677 17.1123 24.1677 17.589C24.1677 17.875 24.087 18.392 23.9257 19.14C23.7863 19.778 23.7167 20.1997 23.7167 20.405C23.7167 20.6983 23.823 20.845 24.0357 20.845C24.1823 20.845 24.3547 20.757 24.5527 20.581C24.758 20.3977 25.0293 20.1043 25.3667 19.701C25.4547 19.5983 25.5537 19.547 25.6637 19.547C25.759 19.547 25.8323 19.591 25.8837 19.679C25.9423 19.767 25.9717 19.888 25.9717 20.042C25.9717 20.3353 25.902 20.5627 25.7627 20.724C25.4473 21.1127 25.1063 21.4317 24.7397 21.681C24.3803 21.9303 23.9697 22.055 23.5077 22.055C23.1337 22.055 22.8513 21.9487 22.6607 21.736C22.47 21.516 22.3747 21.2007 22.3747 20.79C22.3747 20.5847 22.426 20.218 22.5287 19.69C22.624 19.228 22.6717 18.909 22.6717 18.733C22.6717 18.6157 22.6313 18.557 22.5507 18.557C22.4553 18.557 22.3197 18.6817 22.1437 18.931C21.975 19.173 21.799 19.4957 21.6157 19.899C21.4397 20.3023 21.2967 20.7277 21.1867 21.175C21.106 21.5197 21.0107 21.7543 20.9007 21.879C20.798 21.9963 20.633 22.055 20.4057 22.055ZM26.4347 22.055C25.958 22.055 25.6097 21.8863 25.3897 21.549C25.177 21.2117 25.0707 20.7643 25.0707 20.207C25.0707 19.877 25.111 19.4553 25.1917 18.942C25.2797 18.4213 25.3897 17.9373 25.5217 17.49C25.5877 17.2553 25.6757 17.094 25.7857 17.006C25.8957 16.918 26.0717 16.874 26.3137 16.874C26.6877 16.874 26.8747 16.9987 26.8747 17.248C26.8747 17.4313 26.805 17.8567 26.6657 18.524C26.4897 19.3307 26.4017 19.877 26.4017 20.163C26.4017 20.383 26.431 20.5517 26.4897 20.669C26.5484 20.7863 26.6474 20.845 26.7867 20.845C26.9187 20.845 27.0837 20.7533 27.2817 20.57C27.4797 20.3867 27.7437 20.097 28.0737 19.701C28.1617 19.5983 28.2607 19.547 28.3707 19.547C28.466 19.547 28.5394 19.591 28.5907 19.679C28.6494 19.767 28.6787 19.888 28.6787 20.042C28.6787 20.3353 28.609 20.5627 28.4697 20.724C27.7437 21.6113 27.0654 22.055 26.4347 22.055ZM26.4127 16.148C26.31 16.148 26.2184 16.1113 26.1377 16.038C26.0644 15.9573 26.0277 15.862 26.0277 15.752C26.0277 15.7007 26.046 15.631 26.0827 15.543L27.1057 13.255C27.1717 13.1083 27.256 13.002 27.3587 12.936C27.4687 12.8627 27.5897 12.826 27.7217 12.826C27.905 12.826 28.0664 12.892 28.2057 13.024C28.3524 13.156 28.4257 13.321 28.4257 13.519C28.4257 13.7243 28.345 13.9297 28.1837 14.135L26.7647 15.961C26.6694 16.0857 26.552 16.148 26.4127 16.148ZM29.8897 22.055C29.1711 22.055 28.6101 21.8533 28.2067 21.45C27.8107 21.0393 27.6127 20.5003 27.6127 19.833C27.6127 19.239 27.7301 18.7183 27.9647 18.271C28.1994 17.8237 28.5037 17.479 28.8777 17.237C29.2517 16.995 29.6441 16.874 30.0547 16.874C30.4581 16.874 30.7697 16.995 30.9897 17.237C31.2171 17.4717 31.3307 17.776 31.3307 18.15C31.3307 18.458 31.2611 18.7183 31.1217 18.931C30.9897 19.1437 30.8137 19.25 30.5937 19.25C30.4544 19.25 30.3407 19.217 30.2527 19.151C30.1721 19.085 30.1317 18.9933 30.1317 18.876C30.1317 18.8247 30.1391 18.766 30.1537 18.7C30.1684 18.634 30.1794 18.5863 30.1867 18.557C30.2234 18.447 30.2417 18.3443 30.2417 18.249C30.2417 18.1537 30.2161 18.0803 30.1647 18.029C30.1207 17.9777 30.0547 17.952 29.9667 17.952C29.7981 17.952 29.6404 18.029 29.4937 18.183C29.3471 18.3297 29.2297 18.5313 29.1417 18.788C29.0537 19.0447 29.0097 19.327 29.0097 19.635C29.0097 20.4857 29.3801 20.911 30.1207 20.911C30.4214 20.911 30.7441 20.812 31.0887 20.614C31.4407 20.4087 31.7854 20.1043 32.1227 19.701C32.2107 19.5983 32.3097 19.547 32.4197 19.547C32.5151 19.547 32.5884 19.591 32.6397 19.679C32.6984 19.767 32.7277 19.888 32.7277 20.042C32.7277 20.3207 32.6581 20.548 32.5187 20.724C32.1741 21.1493 31.7597 21.4793 31.2757 21.714C30.7991 21.9413 30.3371 22.055 29.8897 22.055ZM33.2795 16.148C32.9715 16.148 32.7405 16.0783 32.5865 15.939C32.4325 15.7923 32.3555 15.5907 32.3555 15.334C32.3555 15.0773 32.4545 14.8647 32.6525 14.696C32.8579 14.52 33.1109 14.432 33.4115 14.432C33.6829 14.432 33.9029 14.498 34.0715 14.63C34.2402 14.762 34.3245 14.949 34.3245 15.191C34.3245 15.4843 34.2292 15.719 34.0385 15.895C33.8479 16.0637 33.5949 16.148 33.2795 16.148ZM33.1915 22.055C32.7149 22.055 32.3665 21.8863 32.1465 21.549C31.9339 21.2117 31.8275 20.7643 31.8275 20.207C31.8275 19.877 31.8679 19.4553 31.9485 18.942C32.0365 18.4213 32.1465 17.9373 32.2785 17.49C32.3445 17.2553 32.4325 17.094 32.5425 17.006C32.6525 16.918 32.8285 16.874 33.0705 16.874C33.4445 16.874 33.6315 16.9987 33.6315 17.248C33.6315 17.4313 33.5619 17.8567 33.4225 18.524C33.2465 19.3307 33.1585 19.877 33.1585 20.163C33.1585 20.383 33.1879 20.5517 33.2465 20.669C33.3052 20.7863 33.4042 20.845 33.5435 20.845C33.6755 20.845 33.8405 20.7533 34.0385 20.57C34.2365 20.3867 34.5005 20.097 34.8305 19.701C34.9185 19.5983 35.0175 19.547 35.1275 19.547C35.2229 19.547 35.2962 19.591 35.3475 19.679C35.4062 19.767 35.4355 19.888 35.4355 20.042C35.4355 20.3353 35.3659 20.5627 35.2265 20.724C34.5005 21.6113 33.8222 22.055 33.1915 22.055ZM35.6676 22.055C35.3376 22.055 35.0662 21.9047 34.8536 21.604C34.6482 21.296 34.5456 20.9147 34.5456 20.46C34.5456 19.91 34.5822 19.4077 34.6556 18.953C34.7289 18.491 34.8499 18.0033 35.0186 17.49C35.0919 17.27 35.1946 17.1123 35.3266 17.017C35.4586 16.9217 35.6676 16.874 35.9536 16.874C36.1149 16.874 36.2249 16.8997 36.2836 16.951C36.3496 17.0023 36.3826 17.0793 36.3826 17.182C36.3826 17.2407 36.3422 17.4387 36.2616 17.776C36.1882 18.0473 36.1296 18.293 36.0856 18.513C35.9389 19.283 35.8656 19.7963 35.8656 20.053C35.8656 20.207 35.8839 20.317 35.9206 20.383C35.9572 20.4417 36.0159 20.471 36.0966 20.471C36.2066 20.471 36.3422 20.361 36.5036 20.141C36.6722 19.921 36.8482 19.5873 37.0316 19.14C37.2222 18.6927 37.4056 18.1427 37.5816 17.49C37.6402 17.27 37.7282 17.1123 37.8456 17.017C37.9702 16.9217 38.1536 16.874 38.3956 16.874C38.5642 16.874 38.6816 16.896 38.7476 16.94C38.8136 16.9767 38.8466 17.05 38.8466 17.16C38.8466 17.3433 38.7549 17.8457 38.5716 18.667C38.3662 19.6057 38.2636 20.185 38.2636 20.405C38.2636 20.5443 38.2929 20.6543 38.3516 20.735C38.4102 20.8083 38.4872 20.845 38.5826 20.845C38.7292 20.845 38.9016 20.757 39.0996 20.581C39.3049 20.3977 39.5762 20.1043 39.9136 19.701C40.0016 19.5983 40.1006 19.547 40.2106 19.547C40.3059 19.547 40.3792 19.591 40.4306 19.679C40.4892 19.767 40.5186 19.888 40.5186 20.042C40.5186 20.3353 40.4489 20.5627 40.3096 20.724C39.9942 21.1127 39.6532 21.4317 39.2866 21.681C38.9272 21.9303 38.5166 22.055 38.0546 22.055C37.7026 22.055 37.4422 21.9193 37.2736 21.648C37.1122 21.3767 37.0316 20.9953 37.0316 20.504C36.9069 21.0027 36.7199 21.3877 36.4706 21.659C36.2212 21.923 35.9536 22.055 35.6676 22.055ZM41.6726 22.297C41.2913 22.297 40.998 22.209 40.7926 22.033C40.5946 21.857 40.4956 21.659 40.4956 21.439C40.4956 21.2483 40.5653 21.0833 40.7046 20.944C40.844 20.8047 41.0493 20.735 41.3206 20.735C41.416 20.735 41.526 20.746 41.6506 20.768C41.7826 20.7827 41.8816 20.7937 41.9476 20.801C41.9403 20.6103 41.8963 20.4307 41.8156 20.262C41.7423 20.0933 41.647 19.932 41.5296 19.778C41.4123 19.6167 41.3023 19.4773 41.1996 19.36C40.9723 19.7927 40.745 20.152 40.5176 20.438C40.2976 20.724 40.0556 20.9953 39.7916 21.252C39.6596 21.384 39.5203 21.45 39.3736 21.45C39.2563 21.45 39.161 21.4097 39.0876 21.329C39.0143 21.241 38.9776 21.1347 38.9776 21.01C38.9776 20.8633 39.029 20.7277 39.1316 20.603L39.2746 20.427C39.678 19.9283 39.9823 19.5177 40.1876 19.195C40.3196 18.9823 40.4516 18.7293 40.5836 18.436C40.723 18.1427 40.9026 17.743 41.1226 17.237C41.262 16.9143 41.5516 16.753 41.9916 16.753C42.197 16.753 42.34 16.7713 42.4206 16.808C42.5013 16.8447 42.5416 16.9033 42.5416 16.984C42.5416 17.028 42.527 17.0977 42.4976 17.193C42.4683 17.2883 42.428 17.3837 42.3766 17.479C42.2446 17.743 42.1786 17.9667 42.1786 18.15C42.1786 18.26 42.2153 18.381 42.2886 18.513C42.3693 18.645 42.4903 18.81 42.6516 19.008C42.8863 19.316 43.0623 19.58 43.1796 19.8C43.3043 20.0127 43.3666 20.2473 43.3666 20.504C43.3666 20.812 43.2933 21.1053 43.1466 21.384C43.0073 21.6553 42.8093 21.8753 42.5526 22.044C42.296 22.2127 42.0026 22.297 41.6726 22.297ZM56.1509 19.569C56.2462 19.569 56.3195 19.6167 56.3709 19.712C56.4295 19.8 56.4589 19.9137 56.4589 20.053C56.4589 20.2217 56.4332 20.3537 56.3819 20.449C56.3305 20.5443 56.2499 20.6287 56.1399 20.702C55.7072 20.988 55.0179 21.4573 54.0719 22.11C53.7859 23.628 53.4155 24.8233 52.9609 25.696C52.5062 26.5687 51.9305 27.005 51.2339 27.005C50.8599 27.005 50.5555 26.8877 50.3209 26.653C50.0862 26.4257 49.9689 26.125 49.9689 25.751C49.9689 25.4063 50.0459 25.058 50.1999 24.706C50.3539 24.354 50.6399 23.947 51.0579 23.485C51.4832 23.023 52.0809 22.495 52.8509 21.901L52.8839 21.692C52.3045 21.934 51.7362 22.055 51.1789 22.055C50.3575 22.055 49.6352 21.8973 49.0119 21.582C48.3885 21.2593 47.9045 20.8047 47.5599 20.218C47.2152 19.6313 47.0429 18.9493 47.0429 18.172C47.0429 17.0867 47.2482 16.1297 47.6589 15.301C48.0695 14.465 48.6342 13.8197 49.3529 13.365C50.0789 12.903 50.8892 12.672 51.7839 12.672C52.6419 12.672 53.2835 12.8737 53.7089 13.277C54.1415 13.673 54.3579 14.201 54.3579 14.861C54.3579 15.2937 54.2772 15.642 54.1159 15.906C53.9619 16.1627 53.7382 16.291 53.4449 16.291C53.2469 16.291 53.0855 16.2433 52.9609 16.148C52.8435 16.0527 52.7849 15.9207 52.7849 15.752C52.7849 15.6787 52.7995 15.554 52.8289 15.378C52.8729 15.1727 52.8949 15.0113 52.8949 14.894C52.8949 14.586 52.7995 14.3477 52.6089 14.179C52.4255 14.0103 52.1139 13.926 51.6739 13.926C51.1385 13.926 50.6399 14.08 50.1779 14.388C49.7232 14.696 49.3565 15.158 49.0779 15.774C48.7992 16.3827 48.6599 17.116 48.6599 17.974C48.6599 18.854 48.8982 19.536 49.3749 20.02C49.8589 20.4967 50.5555 20.735 51.4649 20.735C51.9709 20.735 52.4989 20.6213 53.0489 20.394L53.2029 19.052H52.0809C51.8755 19.052 51.7179 19.0043 51.6079 18.909C51.4979 18.8063 51.4429 18.6413 51.4429 18.414C51.4429 18.2087 51.4979 18.0473 51.6079 17.93C51.7179 17.8127 51.8645 17.754 52.0479 17.754H54.1049C54.2662 17.754 54.3982 17.809 54.5009 17.919C54.6109 18.0217 54.6549 18.172 54.6329 18.37C54.6109 18.6047 54.5375 19.1363 54.4129 19.965L54.2919 20.801C54.8785 20.361 55.4139 19.9797 55.8979 19.657C55.9932 19.5983 56.0775 19.569 56.1509 19.569ZM51.3549 25.938C51.5455 25.938 51.7545 25.7217 51.9819 25.289C52.2092 24.8563 52.4219 24.1597 52.6199 23.199C52.0625 23.6757 51.6592 24.1047 51.4099 24.486C51.1679 24.8747 51.0469 25.2157 51.0469 25.509C51.0469 25.795 51.1495 25.938 51.3549 25.938ZM56.4457 22.055C56.1671 22.055 55.9691 21.9083 55.8517 21.615C55.7417 21.3217 55.6867 20.8523 55.6867 20.207C55.6867 19.2537 55.8224 18.348 56.0937 17.49C56.1597 17.2773 56.2661 17.1233 56.4127 17.028C56.5667 16.9253 56.7794 16.874 57.0507 16.874C57.1974 16.874 57.3001 16.8923 57.3587 16.929C57.4174 16.9657 57.4467 17.0353 57.4467 17.138C57.4467 17.2553 57.3917 17.5193 57.2817 17.93C57.2084 18.2233 57.1497 18.48 57.1057 18.7C57.0617 18.92 57.0251 19.1913 56.9957 19.514C57.2377 18.8833 57.5091 18.37 57.8097 17.974C58.1104 17.578 58.4037 17.2957 58.6897 17.127C58.9831 16.9583 59.2507 16.874 59.4927 16.874C59.9694 16.874 60.2077 17.1123 60.2077 17.589C60.2077 17.6843 60.1747 17.9153 60.1087 18.282C60.0501 18.5753 60.0207 18.7587 60.0207 18.832C60.0207 19.0887 60.1124 19.217 60.2957 19.217C60.5011 19.217 60.7651 19.0557 61.0877 18.733C61.1831 18.6377 61.2821 18.59 61.3847 18.59C61.4801 18.59 61.5534 18.634 61.6047 18.722C61.6634 18.8027 61.6927 18.9127 61.6927 19.052C61.6927 19.3233 61.6194 19.536 61.4727 19.69C61.2674 19.9027 61.0254 20.086 60.7467 20.24C60.4754 20.3867 60.1857 20.46 59.8777 20.46C59.4891 20.46 59.1921 20.361 58.9867 20.163C58.7887 19.965 58.6897 19.6973 58.6897 19.36C58.6897 19.25 58.7007 19.14 58.7227 19.03C58.7374 18.8833 58.7447 18.7843 58.7447 18.733C58.7447 18.6157 58.7044 18.557 58.6237 18.557C58.5137 18.557 58.3671 18.6817 58.1837 18.931C58.0077 19.173 57.8317 19.4957 57.6557 19.899C57.4797 20.3023 57.3367 20.7277 57.2267 21.175C57.1461 21.5197 57.0507 21.7543 56.9407 21.879C56.8381 21.9963 56.6731 22.055 56.4457 22.055ZM62.0236 22.055C61.5689 22.055 61.2059 21.89 60.9346 21.56C60.6632 21.23 60.5276 20.7973 60.5276 20.262C60.5276 19.6753 60.6632 19.1217 60.9346 18.601C61.2059 18.073 61.5652 17.6513 62.0126 17.336C62.4672 17.0133 62.9476 16.852 63.4536 16.852C63.6149 16.852 63.7212 16.885 63.7726 16.951C63.8312 17.0097 63.8789 17.1197 63.9156 17.281C64.0696 17.2517 64.2309 17.237 64.3996 17.237C64.7589 17.237 64.9386 17.3653 64.9386 17.622C64.9386 17.776 64.8836 18.1427 64.7736 18.722C64.6049 19.5653 64.5206 20.152 64.5206 20.482C64.5206 20.592 64.5462 20.68 64.5976 20.746C64.6562 20.812 64.7296 20.845 64.8176 20.845C64.9569 20.845 65.1256 20.757 65.3236 20.581C65.5216 20.3977 65.7892 20.1043 66.1266 19.701C66.2146 19.5983 66.3136 19.547 66.4236 19.547C66.5189 19.547 66.5922 19.591 66.6436 19.679C66.7022 19.767 66.7316 19.888 66.7316 20.042C66.7316 20.3353 66.6619 20.5627 66.5226 20.724C66.2219 21.098 65.9029 21.4133 65.5656 21.67C65.2282 21.9267 64.9019 22.055 64.5866 22.055C64.3446 22.055 64.1209 21.9743 63.9156 21.813C63.7176 21.6443 63.5672 21.417 63.4646 21.131C63.0832 21.747 62.6029 22.055 62.0236 22.055ZM62.4196 20.944C62.5809 20.944 62.7349 20.8487 62.8816 20.658C63.0282 20.4673 63.1346 20.2143 63.2006 19.899L63.6076 17.875C63.2996 17.8823 63.0136 17.9997 62.7496 18.227C62.4929 18.447 62.2876 18.7403 62.1336 19.107C61.9796 19.4737 61.9026 19.8623 61.9026 20.273C61.9026 20.5003 61.9466 20.669 62.0346 20.779C62.1299 20.889 62.2582 20.944 62.4196 20.944ZM67.9386 22.055C67.2199 22.055 66.6589 21.8533 66.2556 21.45C65.8596 21.0393 65.6616 20.5003 65.6616 19.833C65.6616 19.239 65.7789 18.7183 66.0136 18.271C66.2482 17.8237 66.5526 17.479 66.9266 17.237C67.3006 16.995 67.6929 16.874 68.1036 16.874C68.5069 16.874 68.8186 16.995 69.0386 17.237C69.2659 17.4717 69.3796 17.776 69.3796 18.15C69.3796 18.458 69.3099 18.7183 69.1706 18.931C69.0386 19.1437 68.8626 19.25 68.6426 19.25C68.5032 19.25 68.3896 19.217 68.3016 19.151C68.2209 19.085 68.1806 18.9933 68.1806 18.876C68.1806 18.8247 68.1879 18.766 68.2026 18.7C68.2172 18.634 68.2282 18.5863 68.2356 18.557C68.2722 18.447 68.2906 18.3443 68.2906 18.249C68.2906 18.1537 68.2649 18.0803 68.2136 18.029C68.1696 17.9777 68.1036 17.952 68.0156 17.952C67.8469 17.952 67.6892 18.029 67.5426 18.183C67.3959 18.3297 67.2786 18.5313 67.1906 18.788C67.1026 19.0447 67.0586 19.327 67.0586 19.635C67.0586 20.4857 67.4289 20.911 68.1696 20.911C68.4702 20.911 68.7929 20.812 69.1376 20.614C69.4896 20.4087 69.8342 20.1043 70.1716 19.701C70.2596 19.5983 70.3586 19.547 70.4686 19.547C70.5639 19.547 70.6372 19.591 70.6886 19.679C70.7472 19.767 70.7766 19.888 70.7766 20.042C70.7766 20.3207 70.7069 20.548 70.5676 20.724C70.2229 21.1493 69.8086 21.4793 69.3246 21.714C68.8479 21.9413 68.3859 22.055 67.9386 22.055ZM71.3284 16.148C71.0204 16.148 70.7894 16.0783 70.6354 15.939C70.4814 15.7923 70.4044 15.5907 70.4044 15.334C70.4044 15.0773 70.5034 14.8647 70.7014 14.696C70.9067 14.52 71.1597 14.432 71.4604 14.432C71.7317 14.432 71.9517 14.498 72.1204 14.63C72.289 14.762 72.3734 14.949 72.3734 15.191C72.3734 15.4843 72.278 15.719 72.0874 15.895C71.8967 16.0637 71.6437 16.148 71.3284 16.148ZM71.2404 22.055C70.7637 22.055 70.4154 21.8863 70.1954 21.549C69.9827 21.2117 69.8764 20.7643 69.8764 20.207C69.8764 19.877 69.9167 19.4553 69.9974 18.942C70.0854 18.4213 70.1954 17.9373 70.3274 17.49C70.3934 17.2553 70.4814 17.094 70.5914 17.006C70.7014 16.918 70.8774 16.874 71.1194 16.874C71.4934 16.874 71.6804 16.9987 71.6804 17.248C71.6804 17.4313 71.6107 17.8567 71.4714 18.524C71.2954 19.3307 71.2074 19.877 71.2074 20.163C71.2074 20.383 71.2367 20.5517 71.2954 20.669C71.354 20.7863 71.453 20.845 71.5924 20.845C71.7244 20.845 71.8894 20.7533 72.0874 20.57C72.2854 20.3867 72.5494 20.097 72.8794 19.701C72.9674 19.5983 73.0664 19.547 73.1764 19.547C73.2717 19.547 73.345 19.591 73.3964 19.679C73.455 19.767 73.4844 19.888 73.4844 20.042C73.4844 20.3353 73.4147 20.5627 73.2754 20.724C72.5494 21.6113 71.871 22.055 71.2404 22.055ZM73.9474 22.055C73.4927 22.055 73.1297 21.89 72.8584 21.56C72.5871 21.23 72.4514 20.7973 72.4514 20.262C72.4514 19.6753 72.5871 19.1217 72.8584 18.601C73.1297 18.073 73.4891 17.6513 73.9364 17.336C74.3911 17.0133 74.8714 16.852 75.3774 16.852C75.5387 16.852 75.6451 16.885 75.6964 16.951C75.7551 17.0097 75.8027 17.1197 75.8394 17.281C75.9934 17.2517 76.1547 17.237 76.3234 17.237C76.6827 17.237 76.8624 17.3653 76.8624 17.622C76.8624 17.776 76.8074 18.1427 76.6974 18.722C76.5287 19.5653 76.4444 20.152 76.4444 20.482C76.4444 20.592 76.4701 20.68 76.5214 20.746C76.5801 20.812 76.6534 20.845 76.7414 20.845C76.8807 20.845 77.0494 20.757 77.2474 20.581C77.4454 20.3977 77.7131 20.1043 78.0504 19.701C78.1384 19.5983 78.2374 19.547 78.3474 19.547C78.4427 19.547 78.5161 19.591 78.5674 19.679C78.6261 19.767 78.6554 19.888 78.6554 20.042C78.6554 20.3353 78.5857 20.5627 78.4464 20.724C78.1457 21.098 77.8267 21.4133 77.4894 21.67C77.1521 21.9267 76.8257 22.055 76.5104 22.055C76.2684 22.055 76.0447 21.9743 75.8394 21.813C75.6414 21.6443 75.4911 21.417 75.3884 21.131C75.0071 21.747 74.5267 22.055 73.9474 22.055ZM74.3434 20.944C74.5047 20.944 74.6587 20.8487 74.8054 20.658C74.9521 20.4673 75.0584 20.2143 75.1244 19.899L75.5314 17.875C75.2234 17.8823 74.9374 17.9997 74.6734 18.227C74.4167 18.447 74.2114 18.7403 74.0574 19.107C73.9034 19.4737 73.8264 19.8623 73.8264 20.273C73.8264 20.5003 73.8704 20.669 73.9584 20.779C74.0537 20.889 74.1821 20.944 74.3434 20.944ZM78.5424 22.055C78.2637 22.055 78.0657 21.9083 77.9484 21.615C77.8384 21.3217 77.7834 20.8523 77.7834 20.207C77.7834 19.2537 77.9191 18.348 78.1904 17.49C78.2564 17.2773 78.3627 17.1233 78.5094 17.028C78.6634 16.9253 78.8761 16.874 79.1474 16.874C79.2941 16.874 79.3967 16.8923 79.4554 16.929C79.5141 16.9657 79.5434 17.0353 79.5434 17.138C79.5434 17.2553 79.4884 17.5193 79.3784 17.93C79.3051 18.2233 79.2464 18.48 79.2024 18.7C79.1584 18.92 79.1217 19.1913 79.0924 19.514C79.3344 18.8833 79.6057 18.37 79.9064 17.974C80.2071 17.578 80.5004 17.2957 80.7864 17.127C81.0797 16.9583 81.3474 16.874 81.5894 16.874C82.0661 16.874 82.3044 17.1123 82.3044 17.589C82.3044 17.875 82.2237 18.392 82.0624 19.14C81.9231 19.778 81.8534 20.1997 81.8534 20.405C81.8534 20.6983 81.9597 20.845 82.1724 20.845C82.3191 20.845 82.4914 20.757 82.6894 20.581C82.8947 20.3977 83.1661 20.1043 83.5034 19.701C83.5914 19.5983 83.6904 19.547 83.8004 19.547C83.8957 19.547 83.9691 19.591 84.0204 19.679C84.0791 19.767 84.1084 19.888 84.1084 20.042C84.1084 20.3353 84.0387 20.5627 83.8994 20.724C83.5841 21.1127 83.2431 21.4317 82.8764 21.681C82.5171 21.9303 82.1064 22.055 81.6444 22.055C81.2704 22.055 80.9881 21.9487 80.7974 21.736C80.6067 21.516 80.5114 21.2007 80.5114 20.79C80.5114 20.5847 80.5627 20.218 80.6654 19.69C80.7607 19.228 80.8084 18.909 80.8084 18.733C80.8084 18.6157 80.7681 18.557 80.6874 18.557C80.5921 18.557 80.4564 18.6817 80.2804 18.931C80.1117 19.173 79.9357 19.4957 79.7524 19.899C79.5764 20.3023 79.4334 20.7277 79.3234 21.175C79.2427 21.5197 79.1474 21.7543 79.0374 21.879C78.9347 21.9963 78.7697 22.055 78.5424 22.055ZM85.0774 22.055C84.6448 22.055 84.2744 21.9487 83.9664 21.736C83.6658 21.516 83.4384 21.23 83.2844 20.878C83.1304 20.526 83.0534 20.1483 83.0534 19.745C83.0534 19.1877 83.1561 18.6927 83.3614 18.26C83.5741 17.82 83.8601 17.479 84.2194 17.237C84.5788 16.9877 84.9821 16.863 85.4294 16.863C85.8621 16.863 86.2324 16.973 86.5404 17.193C86.8484 17.4057 87.0794 17.688 87.2334 18.04C87.3874 18.392 87.4644 18.7697 87.4644 19.173C87.4644 19.7303 87.3581 20.229 87.1454 20.669C86.9328 21.1017 86.6431 21.4427 86.2764 21.692C85.9171 21.934 85.5174 22.055 85.0774 22.055ZM85.1984 20.867C85.4478 20.867 85.6568 20.7313 85.8254 20.46C86.0014 20.1887 86.0894 19.7927 86.0894 19.272C86.0894 18.8687 86.0161 18.5643 85.8694 18.359C85.7228 18.1537 85.5468 18.051 85.3414 18.051C85.0774 18.051 84.8574 18.1867 84.6814 18.458C84.5128 18.722 84.4284 19.118 84.4284 19.646C84.4284 20.064 84.5018 20.372 84.6484 20.57C84.7951 20.768 84.9784 20.867 85.1984 20.867ZM100.343 12.881C100.548 12.9103 100.688 12.9727 100.761 13.068C100.842 13.1633 100.882 13.288 100.882 13.442C100.882 13.948 100.611 14.1827 100.068 14.146L99.6829 14.113C99.2503 14.0763 98.8176 14.047 98.3849 14.025C97.9596 14.003 97.5123 13.992 97.0429 13.992H96.5479C96.4599 15.0773 96.3683 16.0673 96.2729 16.962L98.1649 16.929C98.4363 16.929 98.6159 16.9767 98.7039 17.072C98.7993 17.1673 98.8469 17.2957 98.8469 17.457C98.8469 17.7063 98.7736 17.9043 98.6269 18.051C98.4803 18.1903 98.2713 18.26 97.9999 18.26H96.1189L96.0529 18.733C95.8989 19.943 95.5689 20.8047 95.0629 21.318C94.5643 21.8313 93.8749 22.088 92.9949 22.088C92.4963 22.088 92.0379 21.9817 91.6199 21.769C91.2019 21.549 90.8939 21.285 90.6959 20.977C90.6153 20.8523 90.5749 20.702 90.5749 20.526C90.5749 20.35 90.6153 20.196 90.6959 20.064C90.7839 19.932 90.8903 19.866 91.0149 19.866C91.1029 19.866 91.1873 19.8953 91.2679 19.954C91.3559 20.0127 91.4659 20.1263 91.5979 20.295C91.9499 20.757 92.3863 20.988 92.9069 20.988C93.3249 20.988 93.6733 20.8193 93.9519 20.482C94.2379 20.1373 94.4213 19.5983 94.5019 18.865L94.5679 18.26H94.0399C93.8713 18.26 93.7246 18.2123 93.5999 18.117C93.4826 18.0217 93.4239 17.886 93.4239 17.71C93.4239 17.4827 93.4826 17.3103 93.5999 17.193C93.7173 17.0683 93.8896 17.006 94.1169 17.006C94.3223 17.006 94.5239 17.0023 94.7219 16.995C94.8099 16.1883 94.9053 15.2093 95.0079 14.058C94.2159 14.1313 93.6586 14.2597 93.3359 14.443C93.0133 14.6263 92.8519 14.8977 92.8519 15.257C92.8519 15.5063 92.9253 15.7447 93.0719 15.972C93.1159 16.038 93.1379 16.104 93.1379 16.17C93.1379 16.302 93.0646 16.4193 92.9179 16.522C92.7713 16.6173 92.6063 16.665 92.4229 16.665C92.2249 16.665 92.0563 16.6063 91.9169 16.489C91.8289 16.4157 91.7446 16.2653 91.6639 16.038C91.5833 15.8107 91.5429 15.5577 91.5429 15.279C91.5429 14.3697 92.0086 13.7097 92.9399 13.299C93.8786 12.8883 95.2463 12.683 97.0429 12.683C98.2896 12.683 99.3896 12.749 100.343 12.881ZM99.9113 22.055C99.4566 22.055 99.0936 21.89 98.8223 21.56C98.5509 21.23 98.4153 20.7973 98.4153 20.262C98.4153 19.6753 98.5509 19.1217 98.8223 18.601C99.0936 18.073 99.4529 17.6513 99.9003 17.336C100.355 17.0133 100.835 16.852 101.341 16.852C101.503 16.852 101.609 16.885 101.66 16.951C101.719 17.0097 101.767 17.1197 101.803 17.281C101.957 17.2517 102.119 17.237 102.287 17.237C102.647 17.237 102.826 17.3653 102.826 17.622C102.826 17.776 102.771 18.1427 102.661 18.722C102.493 19.5653 102.408 20.152 102.408 20.482C102.408 20.592 102.434 20.68 102.485 20.746C102.544 20.812 102.617 20.845 102.705 20.845C102.845 20.845 103.013 20.757 103.211 20.581C103.409 20.3977 103.677 20.1043 104.014 19.701C104.102 19.5983 104.201 19.547 104.311 19.547C104.407 19.547 104.48 19.591 104.531 19.679C104.59 19.767 104.619 19.888 104.619 20.042C104.619 20.3353 104.55 20.5627 104.41 20.724C104.11 21.098 103.791 21.4133 103.453 21.67C103.116 21.9267 102.79 22.055 102.474 22.055C102.232 22.055 102.009 21.9743 101.803 21.813C101.605 21.6443 101.455 21.417 101.352 21.131C100.971 21.747 100.491 22.055 99.9113 22.055ZM100.307 20.944C100.469 20.944 100.623 20.8487 100.769 20.658C100.916 20.4673 101.022 20.2143 101.088 19.899L101.495 17.875C101.187 17.8823 100.901 17.9997 100.637 18.227C100.381 18.447 100.175 18.7403 100.021 19.107C99.8673 19.4737 99.7903 19.8623 99.7903 20.273C99.7903 20.5003 99.8343 20.669 99.9223 20.779C100.018 20.889 100.146 20.944 100.307 20.944ZM104.506 22.055C104.228 22.055 104.03 21.9083 103.912 21.615C103.802 21.3217 103.747 20.8523 103.747 20.207C103.747 19.2537 103.883 18.348 104.154 17.49C104.22 17.2773 104.327 17.1233 104.473 17.028C104.627 16.9253 104.84 16.874 105.111 16.874C105.258 16.874 105.361 16.8923 105.419 16.929C105.478 16.9657 105.507 17.0353 105.507 17.138C105.507 17.2553 105.452 17.5193 105.342 17.93C105.269 18.2233 105.21 18.48 105.166 18.7C105.122 18.92 105.086 19.1913 105.056 19.514C105.298 18.8833 105.57 18.37 105.87 17.974C106.171 17.578 106.464 17.2957 106.75 17.127C107.044 16.9583 107.311 16.874 107.553 16.874C108.03 16.874 108.268 17.1123 108.268 17.589C108.268 17.6843 108.235 17.9153 108.169 18.282C108.111 18.5753 108.081 18.7587 108.081 18.832C108.081 19.0887 108.173 19.217 108.356 19.217C108.562 19.217 108.826 19.0557 109.148 18.733C109.244 18.6377 109.343 18.59 109.445 18.59C109.541 18.59 109.614 18.634 109.665 18.722C109.724 18.8027 109.753 18.9127 109.753 19.052C109.753 19.3233 109.68 19.536 109.533 19.69C109.328 19.9027 109.086 20.086 108.807 20.24C108.536 20.3867 108.246 20.46 107.938 20.46C107.55 20.46 107.253 20.361 107.047 20.163C106.849 19.965 106.75 19.6973 106.75 19.36C106.75 19.25 106.761 19.14 106.783 19.03C106.798 18.8833 106.805 18.7843 106.805 18.733C106.805 18.6157 106.765 18.557 106.684 18.557C106.574 18.557 106.428 18.6817 106.244 18.931C106.068 19.173 105.892 19.4957 105.716 19.899C105.54 20.3023 105.397 20.7277 105.287 21.175C105.207 21.5197 105.111 21.7543 105.001 21.879C104.899 21.9963 104.734 22.055 104.506 22.055ZM110.172 16.148C109.864 16.148 109.633 16.0783 109.479 15.939C109.325 15.7923 109.248 15.5907 109.248 15.334C109.248 15.0773 109.347 14.8647 109.545 14.696C109.75 14.52 110.003 14.432 110.304 14.432C110.575 14.432 110.795 14.498 110.964 14.63C111.133 14.762 111.217 14.949 111.217 15.191C111.217 15.4843 111.122 15.719 110.931 15.895C110.74 16.0637 110.487 16.148 110.172 16.148ZM110.084 22.055C109.607 22.055 109.259 21.8863 109.039 21.549C108.826 21.2117 108.72 20.7643 108.72 20.207C108.72 19.877 108.76 19.4553 108.841 18.942C108.929 18.4213 109.039 17.9373 109.171 17.49C109.237 17.2553 109.325 17.094 109.435 17.006C109.545 16.918 109.721 16.874 109.963 16.874C110.337 16.874 110.524 16.9987 110.524 17.248C110.524 17.4313 110.454 17.8567 110.315 18.524C110.139 19.3307 110.051 19.877 110.051 20.163C110.051 20.383 110.08 20.5517 110.139 20.669C110.198 20.7863 110.297 20.845 110.436 20.845C110.568 20.845 110.733 20.7533 110.931 20.57C111.129 20.3867 111.393 20.097 111.723 19.701C111.811 19.5983 111.91 19.547 112.02 19.547C112.115 19.547 112.189 19.591 112.24 19.679C112.299 19.767 112.328 19.888 112.328 20.042C112.328 20.3353 112.258 20.5627 112.119 20.724C111.393 21.6113 110.715 22.055 110.084 22.055ZM112.703 22.055C112.285 22.055 111.944 21.89 111.68 21.56C111.423 21.23 111.295 20.7973 111.295 20.262C111.295 19.6753 111.431 19.1217 111.702 18.601C111.973 18.073 112.333 17.6513 112.78 17.336C113.235 17.0133 113.715 16.852 114.221 16.852C114.382 16.852 114.489 16.885 114.54 16.951C114.599 17.0097 114.646 17.1197 114.683 17.281C114.822 17.2517 114.976 17.237 115.145 17.237C115.321 17.237 115.457 17.281 115.552 17.369C115.647 17.457 115.695 17.5817 115.695 17.743C115.695 17.9117 115.658 18.205 115.585 18.623C115.504 19.0703 115.442 19.4993 115.398 19.91C115.354 20.3133 115.332 20.768 115.332 21.274C115.332 21.5527 115.273 21.7543 115.156 21.879C115.046 21.9963 114.863 22.055 114.606 22.055C114.357 22.055 114.17 21.9963 114.045 21.879C113.928 21.7543 113.869 21.5563 113.869 21.285L113.88 21.109C113.653 21.7397 113.26 22.055 112.703 22.055ZM113.132 20.944C113.337 20.944 113.524 20.801 113.693 20.515C113.862 20.229 114.012 19.7193 114.144 18.986L114.353 17.875C114.052 17.8823 113.774 17.9997 113.517 18.227C113.26 18.447 113.055 18.7403 112.901 19.107C112.747 19.4737 112.67 19.8623 112.67 20.273C112.67 20.493 112.71 20.6617 112.791 20.779C112.879 20.889 112.993 20.944 113.132 20.944Z" fill="black"/>
<path d="M8 23.1H115.948V23.65H8V23.1Z" fill="black"/>
</g>
<path d="M55 30H57V32H55V37C55 37.5304 54.7893 38.0391 54.4142 38.4142C54.0391 38.7893 53.5304 39 53 39C53.5304 39 54.0391 39.2107 54.4142 39.5858C54.7893 39.9609 55 40.4696 55 41V46H57V48H55C53.93 47.73 53 47.1 53 46V42C53 41.4696 52.7893 40.9609 52.4142 40.5858C52.0391 40.2107 51.5304 40 51 40H50V38H51C51.5304 38 52.0391 37.7893 52.4142 37.4142C52.7893 37.0391 53 36.5304 53 36V32C53 31.4696 53.2107 30.9609 53.5858 30.5858C53.9609 30.2107 54.4696 30 55 30ZM69 30C69.5304 30 70.0391 30.2107 70.4142 30.5858C70.7893 30.9609 71 31.4696 71 32V36C71 36.5304 71.2107 37.0391 71.5858 37.4142C71.9609 37.7893 72.4696 38 73 38H74V40H73C72.4696 40 71.9609 40.2107 71.5858 40.5858C71.2107 40.9609 71 41.4696 71 42V46C71 46.5304 70.7893 47.0391 70.4142 47.4142C70.0391 47.7893 69.5304 48 69 48H67V46H69V41C69 40.4696 69.2107 39.9609 69.5858 39.5858C69.9609 39.2107 70.4696 39 71 39C70.4696 39 69.9609 38.7893 69.5858 38.4142C69.2107 38.0391 69 37.5304 69 37V32H67V30H69ZM62 42C62.2652 42 62.5196 42.1054 62.7071 42.2929C62.8946 42.4804 63 42.7348 63 43C63 43.2652 62.8946 43.5196 62.7071 43.7071C62.5196 43.8946 62.2652 44 62 44C61.7348 44 61.4804 43.8946 61.2929 43.7071C61.1054 43.5196 61 43.2652 61 43C61 42.7348 61.1054 42.4804 61.2929 42.2929C61.4804 42.1054 61.7348 42 62 42ZM58 42C58.2652 42 58.5196 42.1054 58.7071 42.2929C58.8946 42.4804 59 42.7348 59 43C59 43.2652 58.8946 43.5196 58.7071 43.7071C58.5196 43.8946 58.2652 44 58 44C57.7348 44 57.4804 43.8946 57.2929 43.7071C57.1054 43.5196 57 43.2652 57 43C57 42.7348 57.1054 42.4804 57.2929 42.2929C57.4804 42.1054 57.7348 42 58 42ZM66 42C66.2652 42 66.5196 42.1054 66.7071 42.2929C66.8946 42.4804 67 42.7348 67 43C67 43.2652 66.8946 43.5196 66.7071 43.7071C66.5196 43.8946 66.2652 44 66 44C65.7348 44 65.4804 43.8946 65.2929 43.7071C65.1054 43.5196 65 43.2652 65 43C65 42.7348 65.1054 42.4804 65.2929 42.2929C65.4804 42.1054 65.7348 42 66 42Z" fill="black"/>
<rect x="0.5" y="0.5" width="123" height="58" rx="15.5" stroke="black"/>
<defs>
<filter id="filter0_b_336_1679" x="-4" y="0.496002" width="131.948" height="38.509" filterUnits="userSpaceOnUse" color-interpolation-filters="sRGB">
<feFlood flood-opacity="0" result="BackgroundImageFix"/>
<feGaussianBlur in="BackgroundImageFix" stdDeviation="6"/>
<feComposite in2="SourceAlpha" operator="in" result="effect1_backgroundBlur_336_1679"/>
<feBlend mode="normal" in="SourceGraphic" in2="effect1_backgroundBlur_336_1679" result="shape"/>
</filter>
</defs>
</svg>
