<svg width="41" height="40" viewBox="0 0 41 40" fill="none" xmlns="http://www.w3.org/2000/svg">
<g id="whatsapp">
<path id="Vector" d="M20.5667 3.33333C11.4667 3.33333 4.04999 10.75 4.04999 19.85C4.04999 22.7667 4.81666 25.6 6.24999 28.1L3.91666 36.6667L12.6667 34.3667C15.0833 35.6833 17.8 36.3833 20.5667 36.3833C29.6667 36.3833 37.0833 28.9667 37.0833 19.8667C37.0833 15.45 35.3667 11.3 32.25 8.18333C29.1333 5.04999 24.9833 3.33333 20.5667 3.33333ZM20.5833 6.11666C24.25 6.11666 27.6833 7.54999 30.2833 10.15C32.8667 12.75 34.3 16.2 34.3 19.8667C34.3 27.4333 28.1333 33.5833 20.5667 33.5833C18.1 33.5833 15.6833 32.9333 13.5833 31.6667L13.0833 31.3833L7.88332 32.75L9.26666 27.6833L8.93332 27.15C7.56666 25 6.83332 22.45 6.83332 19.85C6.84999 12.2833 13 6.11666 20.5833 6.11666ZM14.7167 12.2167C14.45 12.2167 14 12.3167 13.6167 12.7333C13.25 13.15 12.1667 14.1667 12.1667 16.1833C12.1667 18.2167 13.65 20.1667 13.8333 20.45C14.0667 20.7333 16.7667 24.9 20.9167 26.6667C21.9 27.1167 22.6667 27.3667 23.2667 27.55C24.25 27.8667 25.15 27.8167 25.8667 27.7167C26.6667 27.6 28.3 26.7167 28.65 25.75C29 24.7833 29 23.9667 28.9 23.7833C28.7833 23.6167 28.5167 23.5167 28.1 23.3333C27.6833 23.1 25.65 22.1 25.2833 21.9667C24.9 21.8333 24.6667 21.7667 24.35 22.1667C24.0833 22.5833 23.2833 23.5167 23.05 23.7833C22.8 24.0667 22.5667 24.1 22.1667 23.9C21.7333 23.6833 20.4 23.25 18.8333 21.85C17.6 20.75 16.7833 19.4 16.5333 18.9833C16.3333 18.5833 16.5167 18.3333 16.7167 18.15C16.9 17.9667 17.1667 17.6667 17.3333 17.4167C17.55 17.1833 17.6167 17 17.75 16.7333C17.8833 16.45 17.8167 16.2167 17.7167 16.0167C17.6167 15.8333 16.7833 13.7667 16.4333 12.95C16.1 12.15 15.7667 12.25 15.5 12.2333C15.2667 12.2333 15 12.2167 14.7167 12.2167Z" fill="black"/>
</g>
</svg>
